<svg width="201" height="52" viewBox="0 0 201 52" fill="none" xmlns="http://www.w3.org/2000/svg">
<path d="M78.9789 33.557V33.779L74.6151 36.0702L73.6279 35.454L62.2383 28.4519L66.989 26.2323L78.9789 33.557Z" fill="#F97316"/>
<path d="M78.9789 33.5571L74.002 30.5492V25.5665C74.3029 25.3906 75.8271 24.5319 78.7527 23.1249L78.9789 33.5571Z" fill="#F97316"/>
<path d="M76.0474 21.4722L78.7524 23.1249C78.7541 23.1367 78.7367 23.2559 78.7329 23.2672C78.729 23.2784 78.7226 23.2887 78.714 23.2971C78.7054 23.3055 78.695 23.3118 78.6835 23.3156C78.6721 23.3193 78.6599 23.3205 78.6479 23.3188C75.5993 24.8426 74.0462 25.634 73.9887 25.6931L70.9863 24.0126L76.0474 21.4722Z" fill="#F97316"/>
<path d="M76.048 21.4876L70.9867 24.0126L71.1199 12.8317C68.7883 14.0051 67.3242 14.7086 66.7276 14.9422L66.9892 26.4544L62.2384 28.452L62.0664 12.5679L75.8694 5.08678H76.048V21.4876Z" fill="#F97316"/>
<path d="M69.6104 35.9558L69.4757 40.3786L64.9512 37.6253V33.0539L69.6104 35.9558Z" fill="#F97316"/>
<path d="M57.2688 32.7529L63.5413 36.5349L69.4766 40.3785L64.98 42.4273C57.1518 38.0882 53.1091 35.9639 52.5098 35.4954L57.2688 32.7529Z" fill="#F97316"/>
<path d="M57.268 33.1535H57.0874C54.1593 34.7363 52.6357 35.4954 52.5166 35.4954V8.97005L54.7559 7.73765L57.268 6.41862V33.1535Z" fill="#F97316"/>
<path d="M12.0156 35.9558L12.1503 40.3786L16.6748 37.6253V33.0539L12.0156 35.9558Z" fill="#F97316"/>
<path d="M24.3581 32.7529L18.0857 36.5349L12.1504 40.3785L16.647 42.4273C24.4752 38.0882 28.5179 35.9639 29.1172 35.4954L24.3581 32.7529Z" fill="#F97316"/>
<path d="M24.3589 33.1535H24.5395C27.4677 34.7363 28.9913 35.4955 29.1104 35.4955V8.97009L26.8711 7.73769L24.3589 6.41867V33.1535Z" fill="#F97316"/>
<path d="M26.5009 39.8145V43.1555L21.7494 46.0574L21.6611 42.6279L26.5009 39.8145Z" fill="#F97316"/>
<path d="M34.0274 38.3113L38.9372 40.9245L26.232 48.2494L21.7441 46.0296L34.0274 38.3113Z" fill="#F97316"/>
<path d="M34.0273 17.6185C34.0875 17.6185 35.1637 18.1749 37.2559 19.2879C37.7551 19.547 38.2345 19.8411 38.6906 20.168L38.9373 40.9243L34.0273 38.3097V17.6185Z" fill="#F97316"/>
<path d="M37.4003 16.2914C37.9782 16.6182 38.4036 16.8623 38.6906 17.0474V12.5193C38.2348 12.1927 37.7553 11.8992 37.2559 11.6413C35.161 10.527 34.0849 9.96983 34.0273 9.96983V14.5333C34.6112 14.8247 35.7028 15.3976 37.4003 16.2914Z" fill="#F97316"/>
<path d="M55.6719 39.8145V43.1555L60.4234 46.0574L60.5117 42.6279L55.6719 39.8145Z" fill="#F97316"/>
<path d="M48.1455 38.3113L43.2357 40.9245L55.9409 48.2494L60.4287 46.0296L48.1455 38.3113Z" fill="#F97316"/>
<path d="M48.1455 17.6185C48.0853 17.6185 47.0091 18.1749 44.917 19.2879C44.4178 19.547 43.9383 19.8411 43.4823 20.168L43.2356 40.9243L48.1455 38.3097V17.6185Z" fill="#F97316"/>
<path d="M44.7725 16.2914C44.1946 16.6182 43.7692 16.8623 43.4823 17.0474V12.5193C43.9381 12.1927 44.4176 11.8992 44.917 11.6413C47.0118 10.527 48.088 9.96983 48.1455 9.96983V14.5333C47.5616 14.8247 46.47 15.3976 44.7725 16.2914Z" fill="#F97316"/>
<path d="M12.4691 27.7268L17.2198 30.1683L5.63247 36.5045L4.64525 37.1207L0.25293 34.7464V34.5692L12.4691 27.7268Z" fill="#F97316"/>
<path d="M0.25293 24.8728C3.18114 26.2798 4.93155 27.3289 5.22986 27.5048L5.18296 32.0108L0.25293 34.6075V24.8728Z" fill="#F97316"/>
<path d="M7.96482 25.6311L5.22986 27.5048C5.171 27.4457 3.38923 26.4521 0.341964 24.9283C0.329979 24.9299 0.317772 24.9288 0.3063 24.925C0.294829 24.9212 0.284406 24.9149 0.27585 24.9065C0.267294 24.8981 0.26084 24.8879 0.256993 24.8766C0.253145 24.8654 0.252009 24.8534 0.253675 24.8416L2.94244 23.0816L7.96482 25.6311Z" fill="#F97316"/>
<path d="M2.94629 5.08678V23.2601L7.87435 25.7229V7.55359L2.94629 5.08678Z" fill="#F97316"/>
<path d="M12.5583 9.53606L12.4688 27.7267L17.2195 30.1683V11.869L12.5583 9.53606Z" fill="#F97316"/>
<path d="M11.2524 7.72403C11.7761 8.01934 12.1553 8.24181 12.4202 8.40915V4.29255C12.0072 3.99595 11.5726 3.72946 11.1199 3.49521C9.22174 2.48591 8.24589 1.98061 8.19238 1.97929V6.11362C8.7201 6.3853 9.71133 6.90504 11.2524 7.72403Z" fill="#F97316"/>
<path d="M105.575 2.72497V17H103.234V7.22314L98.8796 17H97.2569L92.882 7.22314V17H90.5405V2.72497H93.0668L98.0785 13.9191L103.07 2.72497H105.575ZM119.313 5.68267V17H116.972V15.6649C116.602 16.1305 116.116 16.5002 115.513 16.7741C114.924 17.0342 114.295 17.1643 113.624 17.1643C112.734 17.1643 111.933 16.9795 111.22 16.6097C110.522 16.24 109.968 15.6923 109.557 14.9666C109.16 14.2408 108.961 13.3645 108.961 12.3375V5.68267H111.282V11.9883C111.282 13.0016 111.535 13.7821 112.042 14.3299C112.549 14.8639 113.24 15.1309 114.117 15.1309C114.993 15.1309 115.684 14.8639 116.191 14.3299C116.711 13.7821 116.972 13.0016 116.972 11.9883V5.68267H119.313ZM125.155 1.80069V17H122.813V1.80069H125.155ZM131.372 7.59286V13.8574C131.372 14.2819 131.467 14.59 131.659 14.7817C131.865 14.9597 132.207 15.0487 132.686 15.0487H134.124V17H132.275C131.221 17 130.413 16.7535 129.852 16.2606C129.29 15.7676 129.01 14.9666 129.01 13.8574V7.59286H127.674V5.68267H129.01V2.86875H131.372V5.68267H134.124V7.59286H131.372ZM135.912 11.29C135.912 10.1535 136.145 9.14702 136.611 8.27066C137.09 7.39431 137.733 6.7165 138.541 6.23724C139.363 5.74429 140.267 5.49782 141.253 5.49782C142.143 5.49782 142.916 5.67583 143.574 6.03185C144.245 6.37417 144.779 6.8055 145.176 7.32584V5.68267H147.538V17H145.176V15.3158C144.779 15.8498 144.238 16.2948 143.553 16.6508C142.868 17.0068 142.088 17.1849 141.212 17.1849C140.239 17.1849 139.349 16.9384 138.541 16.4454C137.733 15.9388 137.09 15.2404 136.611 14.3504C136.145 13.4466 135.912 12.4265 135.912 11.29ZM145.176 11.3311C145.176 10.5506 145.011 9.87275 144.683 9.29764C144.368 8.72254 143.95 8.28436 143.43 7.98311C142.909 7.68186 142.348 7.53124 141.746 7.53124C141.143 7.53124 140.582 7.68186 140.061 7.98311C139.541 8.27066 139.116 8.702 138.788 9.2771C138.473 9.83852 138.315 10.5095 138.315 11.29C138.315 12.0705 138.473 12.7551 138.788 13.3439C139.116 13.9328 139.541 14.3846 140.061 14.6996C140.595 15.0008 141.157 15.1514 141.746 15.1514C142.348 15.1514 142.909 15.0008 143.43 14.6996C143.95 14.3983 144.368 13.9601 144.683 13.385C145.011 12.7962 145.176 12.1116 145.176 11.3311ZM156.734 5.49782C157.624 5.49782 158.418 5.68267 159.117 6.05238C159.829 6.4221 160.383 6.96982 160.78 7.69555C161.177 8.42129 161.376 9.29764 161.376 10.3246V17H159.055V10.6738C159.055 9.66051 158.802 8.88685 158.295 8.35282C157.788 7.8051 157.097 7.53124 156.221 7.53124C155.344 7.53124 154.646 7.8051 154.126 8.35282C153.619 8.88685 153.366 9.66051 153.366 10.6738V17H151.024V5.68267H153.366V6.97667C153.749 6.5111 154.235 6.14824 154.824 5.88807C155.426 5.6279 156.063 5.49782 156.734 5.49782ZM92.8614 23.725V32.824C92.8614 33.9058 93.1422 34.7205 93.7036 35.2682C94.2787 35.816 95.0729 36.0898 96.0862 36.0898C97.1131 36.0898 97.9073 35.816 98.4688 35.2682C99.0439 34.7205 99.3314 33.9058 99.3314 32.824V23.725H101.673V32.7829C101.673 33.9468 101.42 34.9328 100.913 35.7406C100.406 36.5485 99.7285 37.151 98.8796 37.5481C98.0306 37.9452 97.0926 38.1438 96.0656 38.1438C95.0386 38.1438 94.1007 37.9452 93.2517 37.5481C92.4164 37.151 91.7523 36.5485 91.2594 35.7406C90.7664 34.9328 90.5199 33.9468 90.5199 32.7829V23.725H92.8614ZM110.842 26.4978C111.732 26.4978 112.527 26.6827 113.225 27.0524C113.937 27.4221 114.492 27.9698 114.889 28.6956C115.286 29.4213 115.484 30.2976 115.484 31.3246V38H113.163V31.6738C113.163 30.6605 112.91 29.8869 112.403 29.3528C111.897 28.8051 111.205 28.5312 110.329 28.5312C109.453 28.5312 108.754 28.8051 108.234 29.3528C107.727 29.8869 107.474 30.6605 107.474 31.6738V38H105.132V26.6827H107.474V27.9767C107.857 27.5111 108.343 27.1482 108.932 26.8881C109.535 26.6279 110.171 26.4978 110.842 26.4978ZM120.073 25.1833C119.649 25.1833 119.293 25.0395 119.005 24.7519C118.718 24.4644 118.574 24.1084 118.574 23.6839C118.574 23.2594 118.718 22.9034 119.005 22.6158C119.293 22.3283 119.649 22.1845 120.073 22.1845C120.484 22.1845 120.833 22.3283 121.121 22.6158C121.408 22.9034 121.552 23.2594 121.552 23.6839C121.552 24.1084 121.408 24.4644 121.121 24.7519C120.833 25.0395 120.484 25.1833 120.073 25.1833ZM121.223 26.6827V38H118.882V26.6827H121.223ZM129.083 35.905L132.288 26.6827H134.773L130.46 38H127.666L123.373 26.6827H125.879L129.083 35.905ZM147.326 32.0641C147.326 32.4885 147.299 32.8719 147.244 33.2143H138.597C138.665 34.118 139.001 34.8437 139.603 35.3915C140.206 35.9392 140.945 36.2131 141.821 36.2131C143.081 36.2131 143.971 35.6859 144.492 34.6315H147.018C146.676 35.6722 146.053 36.528 145.149 37.199C144.259 37.8562 143.15 38.1849 141.821 38.1849C140.74 38.1849 139.768 37.9452 138.905 37.466C138.056 36.973 137.385 36.2884 136.892 35.412C136.413 34.522 136.173 33.495 136.173 32.3311C136.173 31.1672 136.406 30.147 136.871 29.2707C137.351 28.3806 138.015 27.696 138.864 27.2167C139.726 26.7374 140.712 26.4978 141.821 26.4978C142.89 26.4978 143.841 26.7306 144.676 27.1962C145.512 27.6617 146.162 28.319 146.628 29.168C147.093 30.0032 147.326 30.9686 147.326 32.0641ZM144.882 31.3246C144.868 30.462 144.56 29.7705 143.958 29.2501C143.355 28.7298 142.609 28.4696 141.719 28.4696C140.911 28.4696 140.219 28.7298 139.644 29.2501C139.069 29.7568 138.727 30.4483 138.617 31.3246H144.882ZM152.383 28.3258C152.725 27.7507 153.177 27.3057 153.738 26.9908C154.313 26.6621 154.991 26.4978 155.772 26.4978V28.9215H155.176C154.259 28.9215 153.56 29.1543 153.081 29.6198C152.615 30.0854 152.383 30.8933 152.383 32.0435V38H150.041V26.6827H152.383V28.3258ZM162.443 38.1849C161.553 38.1849 160.752 38.0274 160.04 37.7124C159.341 37.3838 158.787 36.9456 158.376 36.3979C157.965 35.8365 157.746 35.2135 157.719 34.5288H160.142C160.183 35.0081 160.409 35.412 160.82 35.7406C161.245 36.0556 161.772 36.2131 162.402 36.2131C163.059 36.2131 163.566 36.0898 163.922 35.8433C164.291 35.5832 164.476 35.2545 164.476 34.8574C164.476 34.433 164.271 34.118 163.86 33.9126C163.463 33.7072 162.826 33.4813 161.95 33.2348C161.101 33.002 160.409 32.7761 159.875 32.557C159.341 32.3379 158.876 32.0024 158.479 31.5506C158.095 31.0987 157.904 30.503 157.904 29.7636C157.904 29.1611 158.082 28.6134 158.438 28.1204C158.794 27.6138 159.3 27.2167 159.957 26.9291C160.628 26.6416 161.395 26.4978 162.258 26.4978C163.545 26.4978 164.579 26.8264 165.359 27.4837C166.154 28.1273 166.578 29.0105 166.633 30.1333H164.291C164.25 29.6267 164.045 29.2227 163.675 28.9215C163.305 28.6202 162.806 28.4696 162.176 28.4696C161.56 28.4696 161.087 28.586 160.759 28.8188C160.43 29.0516 160.266 29.3597 160.266 29.7431C160.266 30.0443 160.375 30.2976 160.594 30.503C160.813 30.7084 161.08 30.8728 161.395 30.996C161.71 31.1055 162.176 31.2493 162.792 31.4273C163.614 31.6464 164.284 31.8723 164.805 32.1051C165.339 32.3242 165.798 32.6529 166.181 33.091C166.564 33.5292 166.763 34.1112 166.777 34.8369C166.777 35.4805 166.599 36.0556 166.243 36.5622C165.887 37.0689 165.38 37.466 164.723 37.7535C164.079 38.0411 163.319 38.1849 162.443 38.1849ZM170.909 25.1833C170.484 25.1833 170.128 25.0395 169.841 24.7519C169.553 24.4644 169.409 24.1084 169.409 23.6839C169.409 23.2594 169.553 22.9034 169.841 22.6158C170.128 22.3283 170.484 22.1845 170.909 22.1845C171.32 22.1845 171.669 22.3283 171.956 22.6158C172.244 22.9034 172.388 23.2594 172.388 23.6839C172.388 24.1084 172.244 24.4644 171.956 24.7519C171.669 25.0395 171.32 25.1833 170.909 25.1833ZM172.059 26.6827V38H169.717V26.6827H172.059ZM178.276 28.5929V34.8574C178.276 35.2819 178.372 35.59 178.563 35.7817C178.769 35.9597 179.111 36.0487 179.59 36.0487H181.028V38H179.179C178.125 38 177.317 37.7535 176.756 37.2606C176.194 36.7676 175.914 35.9666 175.914 34.8574V28.5929H174.579V26.6827H175.914V23.8687H178.276V26.6827H181.028V28.5929H178.276ZM193.785 26.6827L186.842 43.3198H184.419L186.719 37.8151L182.262 26.6827H184.87L188.054 35.3093L191.361 26.6827H193.785Z" fill="white"/>
<path d="M92.4046 49.252C92.0208 49.252 91.6719 49.1648 91.3579 48.9904C91.0488 48.8159 90.8046 48.5692 90.6252 48.2502C90.4507 47.9262 90.3635 47.5524 90.3635 47.1287C90.3635 46.71 90.4532 46.3411 90.6326 46.0221C90.8171 45.6982 91.0663 45.4514 91.3803 45.282C91.6943 45.1075 92.0457 45.0203 92.4345 45.0203C92.8233 45.0203 93.1747 45.1075 93.4887 45.282C93.8027 45.4514 94.0495 45.6957 94.2289 46.0147C94.4133 46.3337 94.5055 46.705 94.5055 47.1287C94.5055 47.5524 94.4108 47.9262 94.2214 48.2502C94.037 48.5692 93.7853 48.8159 93.4663 48.9904C93.1473 49.1648 92.7934 49.252 92.4046 49.252ZM92.4046 48.6539C92.6488 48.6539 92.8781 48.5966 93.0925 48.482C93.3068 48.3673 93.4787 48.1953 93.6083 47.9661C93.7429 47.7368 93.8102 47.4577 93.8102 47.1287C93.8102 46.7997 93.7454 46.5206 93.6158 46.2913C93.4862 46.062 93.3167 45.8926 93.1074 45.7829C92.8981 45.6683 92.6713 45.6109 92.427 45.6109C92.1778 45.6109 91.9485 45.6683 91.7392 45.7829C91.5348 45.8926 91.3703 46.062 91.2457 46.2913C91.1211 46.5206 91.0588 46.7997 91.0588 47.1287C91.0588 47.4626 91.1186 47.7443 91.2383 47.9735C91.3629 48.2028 91.5273 48.3748 91.7317 48.4894C91.9361 48.5991 92.1604 48.6539 92.4046 48.6539ZM97.1421 45.6483H96.2823V49.1848H95.602V45.6483H95.0711V45.0876H95.602V44.796C95.602 44.3374 95.7191 44.0035 95.9534 43.7941C96.1926 43.5798 96.5739 43.4726 97.0973 43.4726V44.0408C96.7982 44.0408 96.5864 44.1007 96.4618 44.2203C96.3421 44.3349 96.2823 44.5268 96.2823 44.796V45.0876H97.1421V45.6483ZM101.731 49.2371C101.387 49.2371 101.078 49.1773 100.803 49.0577C100.534 48.933 100.322 48.7636 100.168 48.5492C100.013 48.3299 99.9337 48.0782 99.9287 47.7941H100.654C100.679 48.0383 100.779 48.2452 100.953 48.4147C101.132 48.5791 101.392 48.6614 101.731 48.6614C102.055 48.6614 102.309 48.5816 102.493 48.4221C102.683 48.2577 102.777 48.0483 102.777 47.7941C102.777 47.5947 102.722 47.4327 102.613 47.3081C102.503 47.1835 102.366 47.0888 102.202 47.024C102.037 46.9592 101.815 46.8894 101.536 46.8147C101.192 46.7249 100.916 46.6352 100.706 46.5455C100.502 46.4558 100.325 46.3162 100.175 46.1268C100.031 45.9324 99.9586 45.6732 99.9586 45.3493C99.9586 45.0651 100.031 44.8134 100.175 44.5941C100.32 44.3748 100.522 44.2053 100.781 44.0857C101.045 43.9661 101.347 43.9063 101.686 43.9063C102.174 43.9063 102.573 44.0284 102.882 44.2726C103.196 44.5169 103.373 44.8408 103.413 45.2446H102.665C102.64 45.0452 102.536 44.8707 102.351 44.7212C102.167 44.5667 101.922 44.4894 101.618 44.4894C101.334 44.4894 101.103 44.5642 100.923 44.7137C100.744 44.8583 100.654 45.0626 100.654 45.3268C100.654 45.5162 100.706 45.6707 100.811 45.7904C100.921 45.91 101.053 46.0022 101.207 46.067C101.367 46.1268 101.589 46.1966 101.873 46.2764C102.217 46.3711 102.493 46.4658 102.703 46.5605C102.912 46.6502 103.091 46.7922 103.241 46.9866C103.39 47.176 103.465 47.4352 103.465 47.7642C103.465 48.0184 103.398 48.2577 103.263 48.482C103.129 48.7063 102.929 48.8882 102.665 49.0277C102.401 49.1673 102.089 49.2371 101.731 49.2371ZM104.287 47.1287C104.287 46.705 104.372 46.3362 104.541 46.0221C104.711 45.7031 104.945 45.4564 105.244 45.282C105.548 45.1075 105.894 45.0203 106.283 45.0203C106.787 45.0203 107.2 45.1424 107.524 45.3866C107.853 45.6309 108.07 45.9698 108.175 46.4035H107.442C107.372 46.1542 107.235 45.9573 107.031 45.8128C106.831 45.6683 106.582 45.596 106.283 45.596C105.894 45.596 105.58 45.7306 105.341 45.9997C105.102 46.2639 104.982 46.6402 104.982 47.1287C104.982 47.6221 105.102 48.0034 105.341 48.2726C105.58 48.5418 105.894 48.6763 106.283 48.6763C106.582 48.6763 106.831 48.6066 107.031 48.467C107.23 48.3274 107.367 48.1281 107.442 47.8689H108.175C108.065 48.2876 107.846 48.624 107.517 48.8782C107.188 49.1274 106.777 49.252 106.283 49.252C105.894 49.252 105.548 49.1648 105.244 48.9904C104.945 48.8159 104.711 48.5692 104.541 48.2502C104.372 47.9312 104.287 47.5573 104.287 47.1287ZM109.509 44.4222C109.379 44.4222 109.27 44.3773 109.18 44.2876C109.09 44.1979 109.045 44.0882 109.045 43.9586C109.045 43.829 109.09 43.7193 109.18 43.6296C109.27 43.5399 109.379 43.4951 109.509 43.4951C109.633 43.4951 109.738 43.5399 109.823 43.6296C109.912 43.7193 109.957 43.829 109.957 43.9586C109.957 44.0882 109.912 44.1979 109.823 44.2876C109.738 44.3773 109.633 44.4222 109.509 44.4222ZM109.838 45.0876V49.1848H109.157V45.0876H109.838ZM114.81 46.9792C114.81 47.1087 114.803 47.2458 114.788 47.3904H111.513C111.538 47.7941 111.675 48.1106 111.924 48.3399C112.179 48.5642 112.485 48.6763 112.844 48.6763C113.138 48.6763 113.382 48.6091 113.577 48.4745C113.776 48.3349 113.916 48.1505 113.995 47.9212H114.728C114.618 48.315 114.399 48.6365 114.07 48.8857C113.741 49.1299 113.332 49.252 112.844 49.252C112.455 49.252 112.106 49.1648 111.797 48.9904C111.493 48.8159 111.254 48.5692 111.08 48.2502C110.905 47.9262 110.818 47.5524 110.818 47.1287C110.818 46.705 110.903 46.3337 111.072 46.0147C111.242 45.6957 111.478 45.4514 111.782 45.282C112.091 45.1075 112.445 45.0203 112.844 45.0203C113.233 45.0203 113.577 45.105 113.876 45.2745C114.175 45.444 114.404 45.6782 114.564 45.9773C114.728 46.2714 114.81 46.6053 114.81 46.9792ZM114.108 46.8371C114.108 46.5779 114.05 46.3561 113.936 46.1717C113.821 45.9823 113.664 45.8402 113.465 45.7455C113.27 45.6458 113.053 45.596 112.814 45.596C112.47 45.596 112.176 45.7056 111.932 45.925C111.693 46.1443 111.556 46.4483 111.521 46.8371H114.108ZM117.779 45.0128C118.278 45.0128 118.682 45.1648 118.991 45.4689C119.3 45.7679 119.454 46.2016 119.454 46.7698V49.1848H118.781V46.867C118.781 46.4583 118.679 46.1468 118.475 45.9324C118.27 45.7131 117.991 45.6035 117.637 45.6035C117.279 45.6035 116.992 45.7156 116.778 45.9399C116.568 46.1642 116.464 46.4907 116.464 46.9193V49.1848H115.783V45.0876H116.464V45.6707C116.598 45.4614 116.78 45.2994 117.009 45.1848C117.244 45.0701 117.5 45.0128 117.779 45.0128ZM120.386 47.1287C120.386 46.705 120.471 46.3362 120.64 46.0221C120.81 45.7031 121.044 45.4564 121.343 45.282C121.647 45.1075 121.994 45.0203 122.382 45.0203C122.886 45.0203 123.3 45.1424 123.624 45.3866C123.953 45.6309 124.169 45.9698 124.274 46.4035H123.541C123.472 46.1542 123.334 45.9573 123.13 45.8128C122.931 45.6683 122.681 45.596 122.382 45.596C121.994 45.596 121.68 45.7306 121.44 45.9997C121.201 46.2639 121.081 46.6402 121.081 47.1287C121.081 47.6221 121.201 48.0034 121.44 48.2726C121.68 48.5418 121.994 48.6763 122.382 48.6763C122.681 48.6763 122.931 48.6066 123.13 48.467C123.329 48.3274 123.467 48.1281 123.541 47.8689H124.274C124.164 48.2876 123.945 48.624 123.616 48.8782C123.287 49.1274 122.876 49.252 122.382 49.252C121.994 49.252 121.647 49.1648 121.343 48.9904C121.044 48.8159 120.81 48.5692 120.64 48.2502C120.471 47.9312 120.386 47.5573 120.386 47.1287ZM128.995 46.9792C128.995 47.1087 128.987 47.2458 128.972 47.3904H125.698C125.723 47.7941 125.86 48.1106 126.109 48.3399C126.363 48.5642 126.67 48.6763 127.029 48.6763C127.323 48.6763 127.567 48.6091 127.761 48.4745C127.961 48.3349 128.1 48.1505 128.18 47.9212H128.913C128.803 48.315 128.584 48.6365 128.255 48.8857C127.926 49.1299 127.517 49.252 127.029 49.252C126.64 49.252 126.291 49.1648 125.982 48.9904C125.678 48.8159 125.439 48.5692 125.264 48.2502C125.09 47.9262 125.002 47.5524 125.002 47.1287C125.002 46.705 125.087 46.3337 125.257 46.0147C125.426 45.6957 125.663 45.4514 125.967 45.282C126.276 45.1075 126.63 45.0203 127.029 45.0203C127.417 45.0203 127.761 45.105 128.06 45.2745C128.359 45.444 128.589 45.6782 128.748 45.9773C128.913 46.2714 128.995 46.6053 128.995 46.9792ZM128.292 46.8371C128.292 46.5779 128.235 46.3561 128.12 46.1717C128.006 45.9823 127.848 45.8402 127.649 45.7455C127.455 45.6458 127.238 45.596 126.999 45.596C126.655 45.596 126.361 45.7056 126.116 45.925C125.877 46.1443 125.74 46.4483 125.705 46.8371H128.292ZM131.782 47.1212C131.782 46.7025 131.866 46.3362 132.036 46.0221C132.205 45.7031 132.437 45.4564 132.731 45.282C133.03 45.1075 133.362 45.0203 133.726 45.0203C134.084 45.0203 134.396 45.0975 134.66 45.2521C134.924 45.4066 135.121 45.601 135.251 45.8352V45.0876H135.939V49.1848H135.251V48.4221C135.116 48.6614 134.914 48.8608 134.645 49.0203C134.381 49.1748 134.072 49.252 133.718 49.252C133.354 49.252 133.025 49.1623 132.731 48.9829C132.437 48.8034 132.205 48.5517 132.036 48.2277C131.866 47.9038 131.782 47.5349 131.782 47.1212ZM135.251 47.1287C135.251 46.8197 135.188 46.5505 135.064 46.3212C134.939 46.0919 134.77 45.9175 134.555 45.7978C134.346 45.6732 134.114 45.6109 133.86 45.6109C133.606 45.6109 133.374 45.6707 133.165 45.7904C132.955 45.91 132.788 46.0845 132.664 46.3137C132.539 46.543 132.477 46.8122 132.477 47.1212C132.477 47.4352 132.539 47.7094 132.664 47.9436C132.788 48.1729 132.955 48.3499 133.165 48.4745C133.374 48.5941 133.606 48.6539 133.86 48.6539C134.114 48.6539 134.346 48.5941 134.555 48.4745C134.77 48.3499 134.939 48.1729 135.064 47.9436C135.188 47.7094 135.251 47.4377 135.251 47.1287ZM139.159 45.0128C139.658 45.0128 140.062 45.1648 140.371 45.4689C140.68 45.7679 140.834 46.2016 140.834 46.7698V49.1848H140.161V46.867C140.161 46.4583 140.059 46.1468 139.855 45.9324C139.65 45.7131 139.371 45.6035 139.017 45.6035C138.658 45.6035 138.372 45.7156 138.157 45.9399C137.948 46.1642 137.843 46.4907 137.843 46.9193V49.1848H137.163V45.0876H137.843V45.6707C137.978 45.4614 138.16 45.2994 138.389 45.1848C138.624 45.0701 138.88 45.0128 139.159 45.0128ZM141.766 47.1212C141.766 46.7025 141.851 46.3362 142.02 46.0221C142.19 45.7031 142.422 45.4564 142.716 45.282C143.015 45.1075 143.349 45.0203 143.717 45.0203C144.036 45.0203 144.333 45.095 144.607 45.2446C144.881 45.3891 145.091 45.581 145.235 45.8203V43.6521H145.923V49.1848H145.235V48.4147C145.101 48.6589 144.901 48.8608 144.637 49.0203C144.373 49.1748 144.064 49.252 143.71 49.252C143.346 49.252 143.015 49.1623 142.716 48.9829C142.422 48.8034 142.19 48.5517 142.02 48.2277C141.851 47.9038 141.766 47.5349 141.766 47.1212ZM145.235 47.1287C145.235 46.8197 145.173 46.5505 145.048 46.3212C144.924 46.0919 144.754 45.9175 144.54 45.7978C144.331 45.6732 144.099 45.6109 143.845 45.6109C143.59 45.6109 143.359 45.6707 143.149 45.7904C142.94 45.91 142.773 46.0845 142.648 46.3137C142.524 46.543 142.461 46.8122 142.461 47.1212C142.461 47.4352 142.524 47.7094 142.648 47.9436C142.773 48.1729 142.94 48.3499 143.149 48.4745C143.359 48.5941 143.59 48.6539 143.845 48.6539C144.099 48.6539 144.331 48.5941 144.54 48.4745C144.754 48.3499 144.924 48.1729 145.048 47.9436C145.173 47.7094 145.235 47.4377 145.235 47.1287ZM152.423 43.9736V44.5268H151.003V49.1848H150.322V44.5268H148.894V43.9736H152.423ZM157.074 46.9792C157.074 47.1087 157.066 47.2458 157.051 47.3904H153.776C153.801 47.7941 153.938 48.1106 154.188 48.3399C154.442 48.5642 154.748 48.6763 155.107 48.6763C155.401 48.6763 155.646 48.6091 155.84 48.4745C156.039 48.3349 156.179 48.1505 156.259 47.9212H156.991C156.882 48.315 156.662 48.6365 156.333 48.8857C156.005 49.1299 155.596 49.252 155.107 49.252C154.719 49.252 154.37 49.1648 154.061 48.9904C153.757 48.8159 153.517 48.5692 153.343 48.2502C153.168 47.9262 153.081 47.5524 153.081 47.1287C153.081 46.705 153.166 46.3337 153.335 46.0147C153.505 45.6957 153.742 45.4514 154.046 45.282C154.355 45.1075 154.709 45.0203 155.107 45.0203C155.496 45.0203 155.84 45.105 156.139 45.2745C156.438 45.444 156.667 45.6782 156.827 45.9773C156.991 46.2714 157.074 46.6053 157.074 46.9792ZM156.371 46.8371C156.371 46.5779 156.314 46.3561 156.199 46.1717C156.084 45.9823 155.927 45.8402 155.728 45.7455C155.533 45.6458 155.317 45.596 155.077 45.596C154.733 45.596 154.439 45.7056 154.195 45.925C153.956 46.1443 153.819 46.4483 153.784 46.8371H156.371ZM157.792 47.1287C157.792 46.705 157.877 46.3362 158.047 46.0221C158.216 45.7031 158.45 45.4564 158.749 45.282C159.053 45.1075 159.4 45.0203 159.789 45.0203C160.292 45.0203 160.706 45.1424 161.03 45.3866C161.359 45.6309 161.575 45.9698 161.68 46.4035H160.947C160.878 46.1542 160.741 45.9573 160.536 45.8128C160.337 45.6683 160.088 45.596 159.789 45.596C159.4 45.596 159.086 45.7306 158.847 45.9997C158.607 46.2639 158.488 46.6402 158.488 47.1287C158.488 47.6221 158.607 48.0034 158.847 48.2726C159.086 48.5418 159.4 48.6763 159.789 48.6763C160.088 48.6763 160.337 48.6066 160.536 48.467C160.736 48.3274 160.873 48.1281 160.947 47.8689H161.68C161.57 48.2876 161.351 48.624 161.022 48.8782C160.693 49.1274 160.282 49.252 159.789 49.252C159.4 49.252 159.053 49.1648 158.749 48.9904C158.45 48.8159 158.216 48.5692 158.047 48.2502C157.877 47.9312 157.792 47.5573 157.792 47.1287ZM164.696 45.0128C165.005 45.0128 165.285 45.0801 165.534 45.2147C165.783 45.3443 165.977 45.5412 166.117 45.8053C166.261 46.0695 166.334 46.391 166.334 46.7698V49.1848H165.661V46.867C165.661 46.4583 165.559 46.1468 165.354 45.9324C165.15 45.7131 164.871 45.6035 164.517 45.6035C164.158 45.6035 163.871 45.7156 163.657 45.9399C163.448 46.1642 163.343 46.4907 163.343 46.9193V49.1848H162.663V43.6521H163.343V45.6707C163.478 45.4614 163.662 45.2994 163.896 45.1848C164.136 45.0701 164.402 45.0128 164.696 45.0128ZM169.516 45.0128C170.015 45.0128 170.418 45.1648 170.727 45.4689C171.036 45.7679 171.191 46.2016 171.191 46.7698V49.1848H170.518V46.867C170.518 46.4583 170.416 46.1468 170.211 45.9324C170.007 45.7131 169.728 45.6035 169.374 45.6035C169.015 45.6035 168.729 45.7156 168.514 45.9399C168.305 46.1642 168.2 46.4907 168.2 46.9193V49.1848H167.52V45.0876H168.2V45.6707C168.335 45.4614 168.517 45.2994 168.746 45.1848C168.98 45.0701 169.237 45.0128 169.516 45.0128ZM174.164 49.252C173.78 49.252 173.431 49.1648 173.117 48.9904C172.808 48.8159 172.564 48.5692 172.385 48.2502C172.21 47.9262 172.123 47.5524 172.123 47.1287C172.123 46.71 172.213 46.3411 172.392 46.0221C172.576 45.6982 172.826 45.4514 173.14 45.282C173.454 45.1075 173.805 45.0203 174.194 45.0203C174.583 45.0203 174.934 45.1075 175.248 45.282C175.562 45.4514 175.809 45.6957 175.988 46.0147C176.173 46.3337 176.265 46.705 176.265 47.1287C176.265 47.5524 176.17 47.9262 175.981 48.2502C175.796 48.5692 175.545 48.8159 175.226 48.9904C174.907 49.1648 174.553 49.252 174.164 49.252ZM174.164 48.6539C174.408 48.6539 174.638 48.5966 174.852 48.482C175.066 48.3673 175.238 48.1953 175.368 47.9661C175.502 47.7368 175.57 47.4577 175.57 47.1287C175.57 46.7997 175.505 46.5206 175.375 46.2913C175.246 46.062 175.076 45.8926 174.867 45.7829C174.657 45.6683 174.431 45.6109 174.186 45.6109C173.937 45.6109 173.708 45.6683 173.499 45.7829C173.294 45.8926 173.13 46.062 173.005 46.2913C172.881 46.5206 172.818 46.7997 172.818 47.1287C172.818 47.4626 172.878 47.7443 172.998 47.9735C173.122 48.2028 173.287 48.3748 173.491 48.4894C173.695 48.5991 173.92 48.6539 174.164 48.6539ZM177.915 43.6521V49.1848H177.234V43.6521H177.915ZM180.936 49.252C180.552 49.252 180.203 49.1648 179.889 48.9904C179.58 48.8159 179.336 48.5692 179.156 48.2502C178.982 47.9262 178.895 47.5524 178.895 47.1287C178.895 46.71 178.984 46.3411 179.164 46.0221C179.348 45.6982 179.598 45.4514 179.912 45.282C180.226 45.1075 180.577 45.0203 180.966 45.0203C181.355 45.0203 181.706 45.1075 182.02 45.282C182.334 45.4514 182.581 45.6957 182.76 46.0147C182.945 46.3337 183.037 46.705 183.037 47.1287C183.037 47.5524 182.942 47.9262 182.753 48.2502C182.568 48.5692 182.317 48.8159 181.998 48.9904C181.679 49.1648 181.325 49.252 180.936 49.252ZM180.936 48.6539C181.18 48.6539 181.409 48.5966 181.624 48.482C181.838 48.3673 182.01 48.1953 182.14 47.9661C182.274 47.7368 182.341 47.4577 182.341 47.1287C182.341 46.7997 182.277 46.5206 182.147 46.2913C182.017 46.062 181.848 45.8926 181.639 45.7829C181.429 45.6683 181.203 45.6109 180.958 45.6109C180.709 45.6109 180.48 45.6683 180.27 45.7829C180.066 45.8926 179.902 46.062 179.777 46.2913C179.652 46.5206 179.59 46.7997 179.59 47.1287C179.59 47.4626 179.65 47.7443 179.77 47.9735C179.894 48.2028 180.059 48.3748 180.263 48.4894C180.467 48.5991 180.692 48.6539 180.936 48.6539ZM185.696 45.0203C186.05 45.0203 186.359 45.0975 186.623 45.2521C186.892 45.4066 187.091 45.601 187.221 45.8352V45.0876H187.909V49.2745C187.909 49.6483 187.829 49.9798 187.67 50.2689C187.51 50.5629 187.281 50.7922 186.982 50.9567C186.688 51.1212 186.344 51.2034 185.95 51.2034C185.412 51.2034 184.963 51.0763 184.604 50.8221C184.245 50.5679 184.034 50.2215 183.969 49.7829H184.642C184.716 50.0321 184.871 50.2315 185.105 50.381C185.339 50.5355 185.621 50.6128 185.95 50.6128C186.324 50.6128 186.628 50.4957 186.862 50.2614C187.101 50.0271 187.221 49.6981 187.221 49.2745V48.4147C187.086 48.6539 186.887 48.8533 186.623 49.0128C186.359 49.1723 186.05 49.252 185.696 49.252C185.332 49.252 185.001 49.1623 184.701 48.9829C184.407 48.8034 184.176 48.5517 184.006 48.2277C183.837 47.9038 183.752 47.5349 183.752 47.1212C183.752 46.7025 183.837 46.3362 184.006 46.0221C184.176 45.7031 184.407 45.4564 184.701 45.282C185.001 45.1075 185.332 45.0203 185.696 45.0203ZM187.221 47.1287C187.221 46.8197 187.159 46.5505 187.034 46.3212C186.91 46.0919 186.74 45.9175 186.526 45.7978C186.316 45.6732 186.085 45.6109 185.83 45.6109C185.576 45.6109 185.344 45.6707 185.135 45.7904C184.926 45.91 184.759 46.0845 184.634 46.3137C184.51 46.543 184.447 46.8122 184.447 47.1212C184.447 47.4352 184.51 47.7094 184.634 47.9436C184.759 48.1729 184.926 48.3499 185.135 48.4745C185.344 48.5941 185.576 48.6539 185.83 48.6539C186.085 48.6539 186.316 48.5941 186.526 48.4745C186.74 48.3499 186.91 48.1729 187.034 47.9436C187.159 47.7094 187.221 47.4377 187.221 47.1287ZM192.662 45.0876L190.195 51.1137H189.492L190.3 49.1399L188.647 45.0876H189.403L190.689 48.4072L191.96 45.0876H192.662Z" fill="white"/>
</svg>
