<svg width="161" height="48" viewBox="0 0 161 48" fill="none" xmlns="http://www.w3.org/2000/svg">
<path d="M22.25 2C10.0997 2 0.25 11.8497 0.25 24C0.25 36.1503 10.0997 46 22.25 46C33.151 46 42.2002 38.0716 43.9458 27.6667H43.7879C42.1598 33.9925 36.4174 38.6667 29.5833 38.6667C21.4832 38.6667 14.9167 32.1002 14.9167 24C14.9167 15.8998 21.4832 9.33333 29.5833 9.33333C36.4174 9.33333 42.1598 14.0075 43.7879 20.3333H43.9458C42.2002 9.92838 33.151 2 22.25 2Z" fill="#98A2B3"/>
<path d="M0.25 24C0.25 11.8497 10.0997 2 22.25 2C33.151 2 42.2002 9.92838 43.9458 20.3333H29.1213C27.4931 14.0075 21.7507 9.33333 14.9167 9.33333C6.81649 9.33333 0.25 15.8998 0.25 24Z" fill="#667085"/>
<path d="M0.25 24C0.25 36.1503 10.0997 46 22.25 46C33.151 46 42.2002 38.0716 43.9458 27.6667H29.1213C27.4931 33.9925 21.7507 38.6667 14.9167 38.6667C6.81649 38.6667 0.25 32.1002 0.25 24Z" fill="#667085"/>
<path d="M75.6886 20.5075C75.0622 15.9834 71.5821 13.3584 67.0679 13.3584C61.7483 13.3584 57.7412 17.2362 57.7412 23.8186C57.7412 30.3911 61.6986 34.2789 67.0679 34.2789C71.9102 34.2789 75.1219 31.1468 75.6886 27.259L71.9699 27.2391C71.5026 29.6254 69.5537 30.9678 67.1176 30.9678C63.8165 30.9678 61.45 28.4919 61.45 23.8186C61.45 19.2249 63.7966 16.6695 67.1276 16.6695C69.6034 16.6695 71.5423 18.0715 71.9699 20.5075H75.6886Z" fill="#475467"/>
<path d="M83.3026 34.3087C85.6989 34.3087 87.1308 33.1851 87.787 31.9024H87.9063V34.0004H91.3666V23.7789C91.3666 19.7419 88.0754 18.5289 85.162 18.5289C81.9504 18.5289 79.4845 19.9607 78.689 22.7448L82.0498 23.222C82.4078 22.178 83.422 21.2831 85.1819 21.2831C86.8524 21.2831 87.7671 22.1382 87.7671 23.6397V23.6993C87.7671 24.7334 86.6833 24.7831 83.9887 25.0715C81.0257 25.3897 78.1918 26.2746 78.1918 29.7149C78.1918 32.7178 80.3893 34.3087 83.3026 34.3087ZM84.2373 31.6638C82.7359 31.6638 81.662 30.9777 81.662 29.6553C81.662 28.2732 82.8651 27.6965 84.4759 27.4678C85.4205 27.3385 87.3097 27.0999 87.7771 26.722V28.5218C87.7771 30.222 86.4049 31.6638 84.2373 31.6638Z" fill="#475467"/>
<path d="M102.612 18.7277H99.5995V15.0686H96.0001V18.7277H93.8325V21.5118H96.0001V30.0033C95.9802 32.8769 98.0683 34.2888 100.773 34.2093C101.797 34.1794 102.503 33.9806 102.891 33.8513L102.284 31.0374C102.085 31.0871 101.678 31.1766 101.23 31.1766C100.325 31.1766 99.5995 30.8584 99.5995 29.4067V21.5118H102.612V18.7277Z" fill="#475467"/>
<path d="M110.017 34.3087C112.414 34.3087 113.846 33.1851 114.502 31.9024H114.621V34.0004H118.081V23.7789C118.081 19.7419 114.79 18.5289 111.877 18.5289C108.665 18.5289 106.199 19.9607 105.404 22.7448L108.765 23.222C109.123 22.178 110.137 21.2831 111.897 21.2831C113.567 21.2831 114.482 22.1382 114.482 23.6397V23.6993C114.482 24.7334 113.398 24.7831 110.704 25.0715C107.74 25.3897 104.907 26.2746 104.907 29.7149C104.907 32.7178 107.104 34.3087 110.017 34.3087ZM110.952 31.6638C109.451 31.6638 108.377 30.9777 108.377 29.6553C108.377 28.2732 109.58 27.6965 111.191 27.4678C112.135 27.3385 114.025 27.0999 114.492 26.722V28.5218C114.492 30.222 113.12 31.6638 110.952 31.6638Z" fill="#475467"/>
<path d="M125.3 13.6368H121.701V34.0004H125.3V13.6368Z" fill="#475467"/>
<path d="M135.663 34.2987C140.138 34.2987 142.982 31.1468 142.982 26.4237C142.982 21.6908 140.138 18.5289 135.663 18.5289C131.189 18.5289 128.345 21.6908 128.345 26.4237C128.345 31.1468 131.189 34.2987 135.663 34.2987ZM135.683 31.4152C133.207 31.4152 131.994 29.2078 131.994 26.4138C131.994 23.6198 133.207 21.3825 135.683 21.3825C138.119 21.3825 139.332 23.6198 139.332 26.4138C139.332 29.2078 138.119 31.4152 135.683 31.4152Z" fill="#475467"/>
<path d="M152.679 40.0459C156.805 40.0459 159.848 38.1567 159.848 34.249V18.7277H156.298V21.2533H156.099C155.552 20.1496 154.409 18.5289 151.714 18.5289C148.184 18.5289 145.41 21.2931 145.41 26.3144C145.41 31.2959 148.184 33.7817 151.704 33.7817C154.319 33.7817 155.542 32.3797 156.099 31.2561H156.278V34.1496C156.278 36.3968 154.787 37.3215 152.738 37.3215C150.571 37.3215 149.616 36.2973 149.179 35.4024L145.937 36.1879C146.593 38.3257 148.791 40.0459 152.679 40.0459ZM152.709 30.9578C150.332 30.9578 149.079 29.1084 149.079 26.2945C149.079 23.5203 150.312 21.482 152.709 21.482C155.025 21.482 156.298 23.401 156.298 26.2945C156.298 29.2078 155.005 30.9578 152.709 30.9578Z" fill="#475467"/>
</svg>
