<svg width="56" height="57" viewBox="0 0 56 57" fill="none" xmlns="http://www.w3.org/2000/svg">
<rect x="4" y="4.26562" width="48" height="48" rx="24" fill="#FFEAD5"/>
<rect x="4" y="4.26562" width="48" height="48" rx="24" stroke="#FFF6ED" stroke-width="8"/>
<g clip-path="url(#clip0_386_12550)">
<path d="M28 30.2656C29.6569 30.2656 31 28.9225 31 27.2656C31 25.6088 29.6569 24.2656 28 24.2656C26.3431 24.2656 25 25.6088 25 27.2656C25 28.9225 26.3431 30.2656 28 30.2656Z" stroke="#EC4A0A" stroke-width="1.5" stroke-linecap="round" stroke-linejoin="round"/>
<path d="M33.657 32.9223L29.414 37.1653C29.039 37.54 28.5306 37.7504 28.0005 37.7504C27.4704 37.7504 26.962 37.54 26.587 37.1653L22.343 32.9223C21.2242 31.8035 20.4623 30.378 20.1537 28.8262C19.845 27.2744 20.0035 25.6658 20.609 24.2041C21.2145 22.7423 22.2399 21.4929 23.5555 20.6138C24.8711 19.7348 26.4178 19.2656 28 19.2656C29.5822 19.2656 31.1289 19.7348 32.4445 20.6138C33.7601 21.4929 34.7855 22.7423 35.391 24.2041C35.9965 25.6658 36.155 27.2744 35.8463 28.8262C35.5377 30.378 34.7758 31.8035 33.657 32.9223V32.9223Z" stroke="#EC4A0A" stroke-width="1.5" stroke-linecap="round" stroke-linejoin="round"/>
</g>
<defs>
<clipPath id="clip0_386_12550">
<rect width="24" height="24" fill="white" transform="translate(16 16.2656)"/>
</clipPath>
</defs>
</svg>
