<svg width="99" height="106" viewBox="0 0 99 106" fill="none" xmlns="http://www.w3.org/2000/svg">
<path opacity="0.05" d="M65.0028 12.4816C68.0588 14.4063 71.098 16.3885 74.0773 18.3012C77.0422 19.8424 79.9065 21.2062 82.5981 22.3735C85.2107 23.1117 87.5716 23.7229 89.5826 24.2646C93.2378 25.3216 92.5235 28.6532 90.2609 30.7769C88.6502 32.3204 86.8478 34.1588 85.0022 36.2633C83.5665 38.3749 82.3632 40.731 81.5099 43.3148C81.3518 45.8986 81.6178 48.6047 82.2458 51.4186C83.4107 54.2756 84.7146 57.3005 86.0113 60.5051C87.5069 63.8151 88.7533 67.3649 89.6353 71.1351C90.4382 75.0276 90.745 79.119 90.5341 83.2992C90.1291 87.4433 89.2039 91.4844 87.8041 95.2043C86.2413 98.5168 84.2735 101.182 81.9821 102.956C79.6021 103.948 76.9727 103.838 74.1612 102.553C71.3257 100.506 68.356 97.4862 65.2904 93.7039C62.2272 89.8138 59.2168 85.9261 56.283 82.3476C53.3325 79.4043 50.4323 77.0625 47.5896 75.3632C44.7062 74.4548 41.8492 74.0521 39.0329 73.9994C36.159 74.4356 33.314 74.9102 30.5264 75.2553C27.7029 75.7179 24.9609 75.8306 22.3507 75.5118C19.7765 75.1211 17.3964 74.2414 15.2848 72.8848C13.3122 71.4371 11.6895 69.5556 10.4863 67.2834C9.52756 64.9728 9.05538 62.3267 9.12249 59.3809C9.47962 56.4352 10.3473 53.3504 11.6608 50.1746C13.1732 46.9988 15.0475 43.7199 17.2023 40.3739C19.4338 37.0255 21.8642 33.6099 24.4312 30.1896C26.9695 26.8053 29.594 23.4688 32.2665 20.2762C34.8551 17.2418 37.4869 14.4686 40.1474 12.079C42.7216 10.0129 45.351 8.45972 48.0355 7.51776C50.6648 6.99045 53.3876 7.1055 56.2111 7.87009C59.0131 8.9343 61.9444 10.5018 65.0004 12.4792" stroke="#EC4A0A" stroke-width="0.77207" stroke-linecap="round"/>
<path opacity="0.12" d="M72.3099 18.0671C74.736 20.4441 77.0859 22.8719 79.3409 25.2367C81.6387 27.2898 83.8255 29.1766 85.8421 30.8631C87.862 32.1665 89.6398 33.2993 91.0942 34.2892C93.5184 36.1501 91.7497 39.018 89.3882 40.4621C87.7543 41.5066 85.914 42.8008 83.9887 44.3615C82.4235 45.9917 80.9866 47.9214 79.7673 50.1683C79.1239 52.5304 78.7827 55.1289 78.6949 57.9272C79.0584 60.8524 79.4994 63.9886 79.9123 67.3025C80.5085 70.7265 80.8752 74.3196 80.9304 78.0166C80.9493 81.7602 80.548 85.5395 79.7171 89.2305C78.7771 92.7945 77.4235 96.0925 75.7271 98.9407C73.9795 101.373 71.9819 103.112 69.822 103.988C67.7203 104.193 65.5444 103.402 63.358 101.586C61.2695 99.1589 59.1724 95.8822 57.0729 91.9328C54.9885 87.896 52.9177 83.8277 50.8361 79.9846C48.6469 76.6307 46.3839 73.7437 44.0472 71.3723C41.5595 69.6454 38.9972 68.3533 36.4 67.394C33.6849 66.878 30.9769 66.4612 28.3394 66.0095C25.6609 65.7257 23.1146 65.2215 20.768 64.4271C18.4774 63.6342 16.4509 62.486 14.7619 60.9823C13.2224 59.4523 12.0819 57.589 11.4017 55.4291C10.948 53.2852 10.9996 50.8879 11.5988 48.2701C12.4561 45.7063 13.8107 43.0636 15.5884 40.3832C17.5475 37.7489 19.8634 35.0661 22.4576 32.3731C25.1279 29.7148 28.005 27.0489 31.0152 24.4268C34.0094 21.8724 37.0802 19.4115 40.1713 17.1306C43.1758 15.0133 46.1719 13.1706 49.1163 11.7086C51.9428 10.5309 54.7199 9.83232 57.4185 9.68508C60.0085 9.88523 62.5521 10.6603 65.0397 12.0083C67.4672 13.5961 69.8885 15.6422 72.3076 18.0666" stroke="#EC4A0A" stroke-width="0.77207" stroke-linecap="round"/>
<path opacity="0.2" d="M77.3206 24.6654C79.0578 27.3078 80.6681 29.9806 82.1593 32.5777C83.7302 34.9276 85.1823 37.1138 86.4762 39.0939C87.8357 40.7482 88.9804 42.2013 89.8484 43.4587C91.0514 45.8189 88.5128 48.2667 86.2012 49.1784C84.6396 49.8417 82.8588 50.7071 80.9539 51.8143C79.3448 53.0342 77.7625 54.5639 76.2651 56.438C75.2191 58.5001 74.345 60.8415 73.6153 63.4223C73.2449 66.1812 72.8902 69.1519 72.4817 72.2767C72.2412 75.5156 71.7999 78.85 71.1122 82.1961C70.4379 85.5477 69.4447 88.8106 68.1438 91.8649C66.8239 94.7528 65.2319 97.2781 63.4436 99.2959C61.7094 100.928 59.8766 101.881 58.0338 102.035C56.3504 101.651 54.7319 100.4 53.2281 98.2756C51.8912 95.6882 50.643 92.377 49.4614 88.4755C48.3061 84.5046 47.1421 80.4676 45.9155 76.5682C44.5409 73.0304 43.0197 69.8132 41.3511 66.9812C39.4663 64.6433 37.4376 62.6505 35.3213 60.9432C33.0353 59.6118 30.728 58.4066 28.4793 57.2413C26.166 56.2621 23.9949 55.1786 22.0438 53.9347C20.1377 52.7512 18.5248 51.3497 17.2739 49.7277C16.1593 48.1339 15.4611 46.3319 15.2334 44.3416C15.2012 42.4119 15.671 40.3305 16.6771 38.1272C17.9001 36.0141 19.591 33.8935 21.675 31.8016C23.9128 29.7894 26.4868 27.7926 29.3175 25.8404C32.2132 23.9568 35.3035 22.1232 38.5087 20.3815C41.6908 18.7263 44.9307 17.2068 48.1509 15.8843C51.2785 14.7153 54.3444 13.8192 57.2904 13.273C60.0947 12.9612 62.7626 13.0703 65.2534 13.6483C67.6059 14.4959 69.7993 15.825 71.8266 17.6277C73.7677 19.6125 75.5987 21.9799 77.3206 24.6654Z" stroke="#EC4A0A" stroke-width="0.77207" stroke-linecap="round"/>
<path opacity="0.27" d="M80.0243 31.5158C81.0662 34.2443 81.9486 36.9608 82.6965 39.5811C83.5448 42.0176 84.2741 44.2874 84.8667 46.344C85.8287 48.9378 86.7935 52.6486 86.5965 53.8563C86.078 54.6572 83.2942 55.7428 81.1082 56.2744C79.6514 56.6753 77.9793 57.2203 76.1468 57.9607C74.5491 58.8416 72.8884 60.0009 71.2032 61.4758C69.8521 63.1755 68.5591 65.1453 67.3177 67.3433C66.348 69.7385 65.3437 72.3184 64.2751 75.011C63.3496 77.8173 62.2671 80.6594 61.012 83.4404C59.8128 86.2156 58.4081 88.8238 56.8311 91.16C55.3079 93.3389 53.656 95.1165 51.953 96.3859C50.3836 97.3408 48.8506 97.6703 47.4321 97.3055C46.226 96.5348 45.1917 95.0362 44.3598 92.8158C43.726 90.2665 43.2476 87.1082 42.8843 83.4438C42.5557 79.7277 42.2182 75.9132 41.8047 72.1602C41.2286 68.6531 40.4836 65.3415 39.5633 62.2905C38.4003 59.5961 37.0674 57.1456 35.6119 54.9247C33.9605 52.9994 32.2587 51.2049 30.5897 49.4903C28.8303 47.9575 27.1933 46.4059 25.7566 44.8099C24.3434 43.3078 23.2105 41.711 22.4223 40.0226C21.7395 38.4051 21.4533 36.6962 21.6101 34.9212C21.926 33.2359 22.7102 31.5074 23.993 29.7589C25.4469 28.1255 27.3152 26.5629 29.5296 25.0915C31.8659 23.7222 34.4976 22.4333 37.347 21.2417C40.2446 20.1373 43.304 19.1359 46.442 18.2626C49.5509 17.4881 52.6799 16.8686 55.7515 16.4504C58.7235 16.1673 61.5862 16.137 64.2768 16.4013C66.819 16.8517 69.1611 17.647 71.2611 18.8109C73.2119 20.175 74.9333 21.9104 76.4132 24.0091C77.8008 26.2364 79.0024 28.7575 80.0243 31.5158Z" stroke="#EC4A0A" stroke-width="0.77207" stroke-linecap="round"/>
<path opacity="0.34" d="M80.6461 37.9437C81.0338 40.5808 81.2522 43.1629 81.3355 45.6259C81.5277 47.9605 81.6072 50.1268 81.5756 52.0791C81.6518 54.6166 81.1863 58.2621 80.5054 59.4135C79.6752 60.1762 76.7721 60.9831 74.7202 61.2528C73.3702 61.4779 71.8148 61.7886 70.0843 62.2358C68.5294 62.8363 66.8499 63.6515 65.0677 64.7206C63.5167 66.0228 61.9446 67.5384 60.3649 69.2405C58.9743 71.1433 57.5221 73.178 56.0086 75.2769C54.6167 77.4915 53.1163 79.6888 51.5266 81.7857C50.0148 83.8829 48.4073 85.7815 46.7534 87.3951C45.2017 88.8837 43.6498 89.9909 42.171 90.6375C40.2849 90.996 37.7798 88.4911 37.3068 85.574C37.2722 83.2215 37.4413 80.3731 37.7664 77.0966C38.1289 73.7863 38.4952 70.354 38.7955 66.9232C38.9459 63.651 38.9401 60.4698 38.7659 57.4421C38.3602 54.6541 37.7826 52.0231 37.0706 49.5559C36.1627 47.3066 35.1849 45.1705 34.2067 43.1361C33.1245 41.2556 32.1269 39.4194 31.2901 37.6195C30.4461 35.9247 29.8376 34.2359 29.5241 32.5618C29.2779 30.9829 29.3757 29.4172 29.8564 27.8904C30.4519 26.4725 31.454 25.1071 32.8812 23.8197C34.4366 22.6582 36.3373 21.6371 38.5153 20.7629C40.7759 19.9991 43.2766 19.3719 45.9395 18.8844C48.6325 18.4919 51.4368 18.2388 54.2795 18.1366C57.0811 18.1293 59.8651 18.288 62.5534 18.6327C65.1413 19.0871 67.5843 19.7597 69.8229 20.6653C71.9152 21.7058 73.776 23.0099 75.3595 24.5789C76.8017 26.2847 77.9801 28.2554 78.8779 30.4742C79.6924 32.7791 80.2788 35.2864 80.6461 37.9437Z" stroke="#EC4A0A" stroke-width="0.77207" stroke-linecap="round"/>
<path opacity="0.42" d="M79.5907 43.4238C79.413 45.8196 79.074 48.1237 78.616 50.291C78.256 52.3763 77.803 54.2904 77.2657 55.9987C76.6058 58.2736 74.9548 61.5224 73.8759 62.5199C72.7684 63.1915 69.7494 63.7618 67.8152 63.8479C66.5471 63.9505 65.1026 64.0863 63.4891 64.2966C61.9906 64.6549 60.3466 65.1582 58.5663 65.8292C56.9254 66.7155 55.2294 67.7531 53.4944 68.9141C51.8809 70.2592 50.2067 71.6818 48.4931 73.1275C46.8715 74.6819 45.2009 76.1883 43.5075 77.5775C41.9071 78.9858 40.3035 80.1979 38.7494 81.1503C35.0555 82.4339 32.2495 79.7576 32.5067 77.1082C32.945 75.0631 33.6128 72.6307 34.4675 69.8507C35.3568 67.0449 36.2726 64.1183 37.15 61.1509C37.8993 58.2767 38.533 55.4187 39.0247 52.6373C39.3171 50.002 39.4609 47.4505 39.4806 45.0068C39.3176 42.7127 39.0797 40.5054 38.8142 38.3997C38.4426 36.4158 38.1145 34.5066 37.8937 32.6816C37.6433 30.9595 37.5648 29.3105 37.7047 27.7529C37.8813 26.2944 38.3222 24.9314 39.0611 23.6845C39.8726 22.5477 41.0014 21.5431 42.466 20.69C44.0125 19.961 45.8102 19.425 47.8073 19.0733C49.8584 18.8296 52.0711 18.7606 54.3867 18.8563C56.7101 19.0417 59.0899 19.3909 61.4591 19.8936C63.7862 20.4759 66.0541 21.2209 68.1977 22.1255C70.2465 23.1129 72.1305 24.2725 73.7945 25.6034C75.3311 27.0241 76.625 28.6254 77.6397 30.3997C78.5297 32.2593 79.1505 34.2854 79.4908 36.4566C79.7585 38.6786 79.7884 41.0148 79.5907 43.4238Z" stroke="#EC4A0A" stroke-width="0.77207" stroke-linecap="round"/>
<path opacity="0.49" d="M77.3756 47.6308C76.7557 49.6741 75.9944 51.5989 75.1392 53.3756C74.3669 55.1082 73.5215 56.6739 72.622 58.0494C71.417 59.9142 68.8832 62.5323 67.5099 63.3036C66.1774 63.8254 63.0588 64.1428 61.222 64.0807C60.0189 64.0814 58.6746 64.0723 57.189 64.0846C55.7705 64.23 54.2153 64.4465 52.5232 64.7524C50.907 65.2449 49.2298 65.8164 47.5206 66.4554C45.8764 67.2543 44.1924 68.0822 42.5025 68.9023C40.8769 69.8229 39.254 70.6804 37.6705 71.4312C35.4545 72.5224 31.7202 73.6857 30.3847 73.5902C29.5271 73.0854 29.4279 70.3438 30.2277 68.1005C30.995 66.432 32.0031 64.4714 33.2156 62.2438C34.4539 60.0032 35.7493 57.6487 37.0341 55.2364C38.2227 52.8736 39.3412 50.4851 40.3588 48.122C41.2167 45.837 41.9644 43.5864 42.6102 41.4033C43.1007 39.3092 43.5209 37.2775 43.9006 35.3372C44.1749 33.4812 44.4631 31.7102 44.8032 30.0475C45.0979 28.4705 45.5006 26.9996 46.0381 25.6628C46.9466 23.8644 49.7788 21.1974 51.7714 20.3964C53.222 20.0439 54.824 19.904 56.5371 19.9674C58.2784 20.1254 60.1031 20.4693 61.9619 20.9858C63.8167 21.5815 65.6721 22.3374 67.4753 23.2387C69.2318 24.2031 70.901 25.3092 72.4273 26.5407C73.8706 27.8293 75.1398 29.2431 76.1952 30.7673C77.1463 32.3468 77.8652 34.0364 78.3235 35.8167C78.6855 37.6464 78.797 39.5601 78.648 41.5332C78.4462 43.5356 78.0186 45.5808 77.3756 47.6308Z" stroke="#EC4A0A" stroke-width="0.77207" stroke-linecap="round"/>
<path opacity="0.56" d="M74.5481 50.4411C72.7352 53.678 70.5633 56.3661 68.2617 58.4032C66.3161 60.3232 64.248 61.5663 62.0886 62.1289C60.2332 62.6478 58.1202 62.65 55.7137 62.2667C53.471 62.14 50.8116 61.9393 47.7413 61.7857C44.7829 62.2158 41.6795 62.7299 38.6557 63.2262C35.795 64.077 33.1616 64.6108 31.0818 64.6335C29.4004 64.6725 28.545 63.9652 28.7469 62.4207C29.5032 60.7505 31.3108 58.2249 34.0543 54.9025C36.8872 51.5629 39.8926 47.8878 42.7092 44.1828C45.0696 40.619 47.1603 37.0995 48.993 33.8638C50.4696 30.8452 51.9767 28.1647 53.6665 26.0302C55.3073 24.2003 57.3642 23.0008 59.888 22.6076C62.4857 22.6004 65.2898 23.403 68.044 24.8496C70.7383 26.5566 73.1884 28.8108 75.0983 31.4295C76.7517 34.1999 77.6871 37.286 77.7339 40.4984C77.498 43.8016 76.4266 47.1893 74.5481 50.4411Z" stroke="#EC4A0A" stroke-width="0.77207" stroke-linecap="round"/>
<path opacity="0.63" d="M71.6056 51.924C69.4702 54.2822 67.0896 56.1182 64.668 57.4003C62.4933 58.6627 60.2849 59.3712 58.1046 59.5454C56.1398 59.7597 54.0707 59.5393 51.8868 58.9704C49.7827 58.6298 47.4329 58.1267 44.8562 57.5307C42.2761 57.3613 39.701 57.1632 37.318 56.9211C34.0322 56.8754 30.4669 55.514 30.9911 53.8164C32.0298 52.528 34.0025 50.7342 36.8229 48.4583C39.7128 46.1805 42.849 43.6698 45.9185 41.1083C48.6905 38.5946 51.3161 36.0894 53.7124 33.7909C55.8344 31.6124 57.8966 29.7306 59.9285 28.3304C61.8699 27.1548 63.9385 26.5554 66.1139 26.6784C68.2893 27.0986 70.3634 28.2036 72.1959 29.8243C73.9551 31.6385 75.3489 33.8717 76.2088 36.3283C76.8809 38.8769 76.9119 41.5785 76.2217 44.2431C75.3467 46.9398 73.7915 49.5639 71.6056 51.924Z" stroke="#EC4A0A" stroke-width="0.77207" stroke-linecap="round"/>
<path opacity="0.71" d="M68.9399 52.2934C66.7644 53.8159 64.444 54.8822 62.1427 55.5045C59.9902 56.1529 57.8604 56.3751 55.8231 56.2003C53.9079 56.0976 51.9892 55.6586 50.0926 54.9378C48.2087 54.3911 46.2355 53.6617 44.2132 52.7923C42.1317 52.2068 40.1945 51.5633 38.524 50.8969C35.3416 49.1909 37.554 45.4113 41.1449 43.4761C43.8244 42.1198 46.7709 40.6453 49.726 39.153C52.5072 37.6612 55.2314 36.1844 57.7649 34.8589C60.1128 33.5902 62.3488 32.5528 64.4202 31.8826C66.3973 31.3593 68.2993 31.2904 70.0578 31.7694C71.7718 32.4619 73.1857 33.6428 74.2452 35.1734C75.2327 36.8383 75.8024 38.7688 75.8868 40.7964C75.8452 42.8762 75.2679 44.9888 74.1384 46.9668C72.9041 48.9547 71.1506 50.7782 68.9399 52.2934Z" stroke="#EC4A0A" stroke-width="0.77207" stroke-linecap="round"/>
<path opacity="0.78" d="M66.8006 51.8477C64.8306 52.6497 62.788 53.0899 60.7964 53.2027C58.8819 53.3484 57.013 53.1853 55.2619 52.7518C53.562 52.3819 51.9172 51.7723 50.3721 50.9655C48.8048 50.2717 47.2647 49.4227 45.8086 48.4558C41.169 44.6084 43.3783 41.3186 46.4671 40.3732C48.7321 39.7412 51.236 39.0989 53.7767 38.4801C56.2264 37.8486 58.668 37.2605 60.9613 36.776C63.1423 36.3166 65.199 36.0205 67.0363 35.9644C69.5856 36.1569 73.3717 38.351 74.2961 40.1621C74.7286 41.5136 74.7572 42.9874 74.3808 44.4579C73.9298 45.9567 73.0623 47.4056 71.798 48.6854C70.482 49.9641 68.798 51.0547 66.8006 51.8477Z" stroke="#EC4A0A" stroke-width="0.77207" stroke-linecap="round"/>
<path opacity="0.85" d="M65.3004 50.8995C62.1585 51.4418 58.942 50.96 56.2244 49.7916C53.5475 48.7845 51.0982 47.1985 49.2941 45.3191C46.7663 43.0288 47.7685 39.9854 52.106 39.3639C55.557 39.0912 59.5937 39.0451 63.1999 39.2504C66.5809 39.4875 69.5132 40.2191 71.2977 41.5797C72.896 43.2165 73.0771 45.2225 72.0406 47.0342C70.8584 48.9146 68.4897 50.3897 65.3004 50.8995Z" stroke="#EC4A0A" stroke-width="0.77207" stroke-linecap="round"/>
<path opacity="0.93" d="M64.42 49.7263C60.178 49.5497 55.8217 46.9054 54.0368 43.9685C51.7631 41.5088 52.929 39.9889 57.3476 40.4152C61.8467 40.9205 67.3811 42.7196 69.454 44.9599C71.0948 47.6256 68.7358 49.9751 64.42 49.7263Z" stroke="#EC4A0A" stroke-width="0.77207" stroke-linecap="round"/>
</svg>
