<svg width="114" height="120" viewBox="0 0 114 120" fill="none" xmlns="http://www.w3.org/2000/svg">
<path opacity="0.05" d="M53.3302 13.3303C56.2314 10.4884 59.2876 8.29686 62.4962 6.99884C65.76 6.45955 69.2603 7.06494 72.9945 8.72777C76.8522 11.1546 80.9674 14.3587 85.2456 18.073C89.4895 22.041 93.6494 26.1413 97.423 30.1834C100.634 34.0536 102.968 37.7177 104.116 41.1465C104.271 44.2977 103.157 47.285 100.939 50.1824C98.4374 52.8921 95.757 55.652 93.5233 58.5309C92.6167 61.3517 93.0634 64.3945 94.9581 67.6937C98.2666 70.9956 101.974 74.4191 105.322 77.8769C108.079 81.2898 109.354 84.6314 108.986 87.735C107.283 90.6059 104.195 93.0037 100.185 94.7115C95.6887 95.9408 91.019 96.2712 86.5385 95.613C82.3786 94.4894 78.668 92.5437 75.4121 90.0191C72.574 87.7323 70.0224 85.5936 67.6153 84.0894C65.4052 83.9361 63.1295 85.1019 60.704 87.7403C58.31 91.8987 55.6743 97.0775 52.7889 102.663C49.9009 108.112 46.9209 112.297 43.9304 114.724C40.9925 115.517 38.1307 114.264 35.4635 111.263C32.946 107.007 30.7359 101.775 28.9385 96.1258C27.3591 90.3892 26.2265 84.9301 25.5512 80.0103C24.9494 75.6378 24.6288 71.9023 24.4554 68.7326C23.9561 66.0573 23.2939 63.6992 22.3452 61.4891C20.7895 59.4985 18.9106 57.4206 16.8372 55.1497C14.551 52.9132 12.538 50.3806 11.1374 47.5335C10.3333 44.6836 10.554 41.6752 11.7339 38.6033C13.5104 35.5975 15.9175 32.6287 18.6662 29.8424C21.3624 27.2437 23.9929 24.9728 26.4131 23.1699C29.2249 21.2057 33.3112 20.558 35.1455 21.5837C36.2781 22.2287 37.6761 22.8949 39.379 23.3576C41.0792 23.1011 43.1105 22.316 45.4493 20.9334C47.796 18.7286 50.4265 16.1035 53.3276 13.3303" stroke="#EC4A0A" stroke-width="0.77207" stroke-linecap="round"/>
<path opacity="0.12" d="M63.8792 16.7799C67.1177 14.6438 70.4562 13.11 73.8323 12.3846C77.1203 12.2911 80.4398 13.2393 83.7552 15.1652C86.9666 17.79 90.1666 21.1998 93.26 25.1461C96.1282 29.3896 98.7026 33.8166 100.751 38.1944C102.25 42.4213 102.918 46.3703 102.581 49.9368C101.537 53.1829 99.5492 56.0775 96.8116 58.6865C94.0566 61.1545 91.3005 63.5872 89.0165 66.1256C87.9034 68.8538 87.8958 71.8987 89.0349 75.2821C91.347 78.8987 94.0116 82.5486 96.4535 86.0377C98.5244 89.3982 99.483 92.314 99.1791 94.6118C97.8222 96.4902 95.3145 97.5926 92.0033 97.8431C88.1865 97.6307 84.1449 96.5805 80.2121 94.7541C76.4148 92.7177 72.9814 90.1857 69.9411 87.4147C67.1117 85.0932 64.509 83.1138 61.9904 81.8307C59.4099 81.7753 56.6698 82.8471 53.6869 85.0994C50.5088 88.5633 47.0772 92.7904 43.4847 97.2737C39.9145 101.645 36.5755 104.975 33.6035 106.876C30.9303 107.476 28.7487 106.385 27.1093 103.806C25.8027 100.12 25.0021 95.5049 24.6829 90.41C24.5358 85.0694 24.7413 79.8294 25.2204 74.9517C25.5938 70.3763 26.0291 66.2987 26.4073 62.7109C26.3474 59.426 26.0252 56.4495 25.3845 53.6598C24.1887 50.9659 22.7337 48.2819 21.1659 45.5456C19.447 42.8274 18.0425 40.0376 17.2261 37.2152C16.9436 34.4974 17.5769 31.945 19.0626 29.6207C21.0956 27.4551 23.7146 25.5502 26.6666 23.9656C29.636 22.5356 32.5643 21.4613 35.2906 20.81C37.6313 20.2914 39.6696 20.2162 41.4187 20.5977C43.4266 21.3763 47.0132 23.772 49.1994 24.5703C50.8279 24.3587 52.8311 23.7318 55.2306 22.6616C57.7522 20.8962 60.6464 18.8606 63.8761 16.782" stroke="#EC4A0A" stroke-width="0.77207" stroke-linecap="round"/>
<path opacity="0.2" d="M73.2861 22.7491C76.703 21.3515 80.1279 20.4986 83.458 20.342C86.5991 20.676 89.5677 21.8943 92.3024 23.9453C94.771 26.5635 96.9649 29.8657 98.816 33.6312C100.317 37.6511 101.356 41.8238 101.806 45.9013C101.756 49.8498 100.982 53.4718 99.4289 56.6526C97.4192 59.5535 94.7822 62.0511 91.7133 64.2101C88.7896 66.3413 86.0022 68.4322 83.6857 70.6374C82.3384 73.2173 81.8724 76.1436 82.3124 79.4123C83.6751 83.0649 85.3821 86.6698 87.0213 89.9915C88.8363 94.4493 87.3329 98.8224 84.1372 98.3451C81.3226 97.2773 78.2805 95.4325 75.2544 92.9645C72.1669 90.4248 69.278 87.6047 66.6188 84.7663C63.9251 82.4374 61.3068 80.5383 58.6558 79.33C55.7263 79.1447 52.5627 79.8895 49.1199 81.5625C45.3499 84.1495 41.369 87.301 37.3357 90.6339C33.3388 93.879 29.8057 96.3476 26.8913 97.7552C24.4056 98.1827 22.6833 97.3234 21.726 95.3042C21.2145 92.3664 21.3586 88.6293 22.0455 84.4267C22.9136 79.8761 24.0966 75.28 25.4488 70.8665C26.6342 66.512 27.7596 62.4673 28.7021 58.7613C29.2001 55.1525 29.3816 51.7719 29.2287 48.5663C28.6085 45.348 27.7588 42.2026 26.8203 39.1344C25.7907 36.0797 25.0302 33.152 24.7601 30.4356C24.9364 27.9063 25.8441 25.8037 27.4241 24.1605C29.4757 22.7464 32.0077 21.7742 34.8083 21.2324C37.6842 20.8253 40.5298 20.8007 43.1876 21.147C45.5846 21.5043 47.6881 22.1853 49.4899 23.1552C51.0139 23.9915 52.3577 25.0157 53.6282 26.141C54.8343 26.8927 56.1689 27.5608 57.7442 28.0463C59.477 27.9247 61.5824 27.5012 64.0928 26.7805C66.8008 25.5069 69.886 24.0992 73.2861 22.7491Z" stroke="#EC4A0A" stroke-width="0.77207" stroke-linecap="round"/>
<path opacity="0.27" d="M80.4438 30.655C83.8655 29.9849 87.1812 29.7719 90.2709 30.1006C93.1244 30.7824 95.6305 32.1403 97.726 34.122C99.4582 36.5142 100.73 39.4105 101.499 42.6229C101.86 46.0147 101.673 49.4689 100.898 52.7776C99.701 55.9754 97.9095 58.8445 95.5594 61.2845C92.9453 63.5461 89.9545 65.4475 86.7776 67.0542C83.8086 68.7666 81.0518 70.4791 78.7404 72.3305C77.1698 74.6704 76.296 77.3511 76.1367 80.3464C76.6598 83.8034 77.5413 87.1651 78.5056 90.2039C79.3729 95.9837 74.4392 94.401 71.3918 90.8163C69.1313 88.2196 66.8933 85.4469 64.6914 82.7434C62.2451 80.486 59.7104 78.6404 57.0099 77.3932C53.8888 76.9222 50.4738 77.1795 46.7732 78.1483C42.6896 79.7564 38.4446 81.7906 34.2376 83.9811C30.071 86.1065 26.4938 87.7291 23.6549 88.6501C21.283 88.8773 19.7989 88.2172 19.1773 86.7357C19.0507 84.5378 19.6539 81.7218 20.8389 78.4997C22.2368 74.8929 23.9538 71.1451 25.8143 67.4244C27.5367 63.5784 29.1698 59.8566 30.5901 56.3064C31.6434 52.6798 32.3878 49.1788 32.8082 45.8026C32.8798 42.337 32.7374 38.9783 32.4974 35.7798C32.2085 32.6023 32.1 29.6903 32.3245 27.1565C32.9045 24.8631 33.9776 23.168 35.5097 22.07C37.4233 21.2493 39.6649 20.985 42.0815 21.2119C44.6186 21.5808 47.1133 22.3352 49.4492 23.4124C51.6607 24.4435 53.6279 25.698 55.3393 27.1172C56.9117 28.318 58.3263 29.5842 59.6703 30.8472C61.0509 31.7239 62.5412 32.4837 64.2435 33.078C66.1673 33.1658 68.4221 33.0474 71.0319 32.7487C73.8823 32.033 77.0449 31.2863 80.4438 30.655Z" stroke="#EC4A0A" stroke-width="0.77207" stroke-linecap="round"/>
<path opacity="0.34" d="M84.5952 39.4046C87.8508 39.4029 90.8913 39.7236 93.6127 40.4114C96.0897 41.3205 98.1116 42.6728 99.6191 44.4118C100.748 46.4053 101.317 48.6901 101.318 51.1202C100.918 53.6497 99.9586 56.1414 98.4684 58.444C96.6403 60.6704 94.3489 62.5959 91.6743 64.1628C88.8531 65.6636 85.8342 66.8964 82.7733 67.9364C79.9123 69.1866 77.2795 70.4957 75.0364 71.9746C73.3076 73.9827 72.1165 76.3109 71.4873 78.9198C71.3263 82.0035 71.5336 84.9953 71.9353 87.6925C72.4736 92.9419 70.0517 91.7058 68.2413 88.5935C66.7044 86.3142 65.0585 83.8755 63.2935 81.4887C61.1631 79.4144 58.8047 77.6458 56.1806 76.3248C53.0806 75.5271 49.6515 75.2515 45.9453 75.487C41.8585 76.1322 37.6514 77.0984 33.5217 78.2145C29.4368 79.2859 25.9569 80.0999 23.2218 80.5169C20.2277 80.1907 19.2311 76.1807 20.8148 72.8017C22.316 70.0748 24.1598 67.1699 26.1655 64.189C28.1202 60.9797 30.0266 57.7554 31.7675 54.5621C33.262 51.1866 34.5092 47.8418 35.483 44.5688C36.2288 41.1621 36.7827 37.8687 37.2151 34.7749C37.638 31.7127 38.1283 28.9817 38.7896 26.7094C39.7063 24.6999 40.8824 23.3512 42.2937 22.6504C43.9993 22.2479 45.8697 22.433 47.8143 23.1288C49.8977 23.9729 51.9257 25.1962 53.8187 26.703C55.7101 28.1594 57.4243 29.7778 58.9542 31.4794C60.4868 32.9624 61.9192 34.4413 63.3183 35.8564C64.8507 36.93 66.4914 37.8844 68.3129 38.6919C70.3998 39.1153 72.7567 39.3997 75.3872 39.5823C78.2678 39.4706 81.3676 39.3785 84.5952 39.4046Z" stroke="#EC4A0A" stroke-width="0.77207" stroke-linecap="round"/>
<path opacity="0.42" d="M85.5931 47.6718C88.5332 48.2298 91.195 48.9539 93.4902 49.8584C95.5713 50.883 97.1619 52.1197 98.2212 53.5163C98.9396 55.0413 99.0935 56.6565 98.7016 58.2607C97.9604 59.9037 96.7124 61.4275 95.0097 62.7434C93.0521 64.0164 90.7354 65.0403 88.1655 65.7983C85.5064 66.5839 82.7417 67.2086 80.0005 67.7445C77.4005 68.548 74.9931 69.4673 72.894 70.5778C71.1136 72.1925 69.7264 74.1035 68.7659 76.2663C68.0945 78.8739 67.7776 81.4169 67.7108 83.7365C67.0698 88.6054 63.7741 83.6129 61.7376 80.6953C59.9095 78.9004 57.7907 77.2671 55.3603 75.898C52.4733 74.8262 49.2569 74.0779 45.7835 73.6621C41.9811 73.4746 38.0766 73.5102 34.256 73.6833C30.4749 73.8302 27.243 73.8971 24.6742 73.7988C21.7878 73.1068 20.4961 69.8557 21.7742 67.3613C23.0862 65.3165 24.7582 63.1053 26.6376 60.7782C28.5559 58.194 30.5096 55.5198 32.379 52.7939C34.1377 49.8563 35.7383 46.8844 37.1413 43.9425C38.4268 40.8697 39.5559 37.8944 40.5538 35.1173C41.5573 32.3872 42.5427 29.9892 43.557 28.0473C45.3586 25.8417 49.5246 24.9477 51.7899 26.0464C53.4299 27.1044 54.9936 28.5111 56.4527 30.1711C57.9869 31.816 59.4077 33.5902 60.7233 35.4153C62.1416 37.0803 63.5221 38.7165 64.9124 40.2764C66.5026 41.5894 68.2055 42.7958 70.0575 43.884C72.1861 44.7123 74.5199 45.4453 77.0441 46.1087C79.798 46.5942 82.68 47.0926 85.5931 47.6718Z" stroke="#EC4A0A" stroke-width="0.77207" stroke-linecap="round"/>
<path opacity="0.49" d="M83.9418 54.2667C86.4599 55.2448 88.6927 56.2398 90.5708 57.2488C93.8628 60.4473 93.0626 64.7655 90.9688 65.6773C89.2602 66.2088 87.2776 66.547 85.1109 66.7037C82.876 66.9513 80.5669 67.1207 78.2831 67.2826C76.0664 67.7224 73.978 68.3038 72.0986 69.0793C70.3814 70.2907 68.9211 71.7651 67.7618 73.4645C66.7561 75.5434 66.0547 77.6032 65.6 79.5221C64.1299 84.5969 61.4173 81.9745 59.69 79.782C58.1088 78.3146 56.2377 76.8603 54.074 75.5031C51.5269 74.2714 48.6909 73.1809 45.6353 72.2632C42.3218 71.4511 38.9266 70.7667 35.5944 70.182C32.3022 69.5838 29.4547 69.0118 27.1453 68.4164C24.4622 67.269 22.8016 64.1615 23.6325 62.1485C24.6231 60.5439 25.9755 58.8169 27.5697 56.9793C29.2769 54.93 31.0936 52.7729 32.9221 50.5397C34.7437 48.121 36.5078 45.6516 38.1582 43.1887C39.7724 40.6294 41.2793 38.1483 42.6609 35.8413C44.0613 33.595 45.3874 31.6418 46.6491 30.0832C48.6448 28.3752 52.437 27.9865 54.2315 29.1325C55.5152 30.208 56.7114 31.5933 57.8187 33.2006C59.0341 34.8436 60.1849 36.6072 61.2905 38.4207C62.5435 40.1567 63.8072 41.8769 65.113 43.5399C66.6346 45.0631 68.2646 46.5105 70.0194 47.8669C72.0266 49.0827 74.1832 50.226 76.454 51.3082C78.923 52.2978 81.448 53.2787 83.9418 54.2667Z" stroke="#EC4A0A" stroke-width="0.77207" stroke-linecap="round"/>
<path opacity="0.56" d="M80.6344 58.4837C84.6791 60.9799 87.541 63.0958 88.9784 64.7002C89.6386 66.2984 88.7715 67.2245 86.6933 67.3829C84.0336 67.6075 80.6556 67.3757 77.1181 67.0508C73.5875 67.7179 70.3512 69.0873 67.8049 71.2415C65.4881 74.587 64.0027 77.6754 63.1326 79.8646C62.075 81.6727 61.1929 81.9584 60.1623 80.9162C58.3255 79.378 55.7663 77.0396 52.3296 74.4342C47.7771 71.8852 42.4639 69.402 37.0787 67.1588C31.8087 64.888 28.1554 62.8035 26.4174 60.7725C25.8215 58.3464 27.0038 55.7175 29.3955 52.8636C32.3488 49.4465 35.8014 45.7287 39.1997 41.9647C42.644 37.9928 45.8466 34.4657 48.5979 32.0109C51.5026 30.3474 53.838 30.3872 55.6919 31.8467C57.8389 33.9739 59.6849 36.9935 61.3769 40.3846C63.6525 43.7628 66.1594 47.1476 69.0043 50.2842C72.6585 53.2164 76.6722 55.9716 80.6344 58.4837Z" stroke="#EC4A0A" stroke-width="0.77207" stroke-linecap="round"/>
<path opacity="0.63" d="M76.8096 60.2622C79.8861 62.9837 82.1059 65.0558 83.3171 66.4033C83.8383 67.9383 79.5746 67.761 75.8898 67.1495C73.1934 67.503 70.4849 68.3694 68.0452 69.801C65.5985 72.1103 63.6861 74.3128 62.2406 75.9772C60.6702 77.482 59.2894 77.9467 57.8722 77.3774C55.9276 76.3861 53.522 74.5504 50.5793 72.1789C46.9177 69.6642 42.8037 66.8734 38.7188 64.0459C34.7181 61.2191 31.8981 58.616 30.4771 56.2331C29.8532 53.7377 30.6272 51.2668 32.4682 48.7887C34.8318 46.0399 37.8137 43.1824 40.9606 40.4003C44.2209 37.5689 47.386 35.1332 50.1767 33.5167C52.9625 32.5136 55.1443 32.756 56.8132 34.049C58.6194 35.9248 60.1541 38.5519 61.5833 41.5562C63.4499 44.7437 65.5125 48.0651 67.8179 51.2589C70.6908 54.4731 73.7935 57.5411 76.8096 60.2622Z" stroke="#EC4A0A" stroke-width="0.77207" stroke-linecap="round"/>
<path opacity="0.71" d="M73.3829 60.1284C77.5982 65.6836 76.5819 67.6876 74.1206 67.2851C72.1602 67.5223 69.9854 68.0305 67.7793 68.8454C65.4525 70.2426 63.3759 71.5599 61.5735 72.5377C59.6673 73.4856 57.9017 73.7285 56.1834 73.2118C54.1619 72.3965 51.9397 70.8263 49.5125 68.6649C46.6914 66.3183 43.7118 63.5578 40.8911 60.5875C38.127 57.6291 36.2201 54.8477 35.3017 52.3221C34.8695 49.8336 35.4767 47.4981 36.9324 45.3296C38.7705 43.1036 41.2026 40.9643 43.9006 39.0319C46.6908 37.1594 49.5085 35.6599 52.0903 34.7941C54.5825 34.3606 56.5746 34.7997 58.1257 35.9808C59.6913 37.6106 61.0228 39.8394 62.2428 42.4255C63.7148 45.2589 65.3001 48.297 67.0202 51.3066C69.0764 54.4299 71.2638 57.451 73.3829 60.1284Z" stroke="#EC4A0A" stroke-width="0.77207" stroke-linecap="round"/>
<path opacity="0.78" d="M70.7987 58.9352C73.5727 64.1817 73.296 66.9999 71.6514 66.9444C70.2568 67.1685 68.5762 67.4338 66.7105 67.7519C64.7006 68.4106 62.7414 68.9358 60.9094 69.208C58.9915 69.5009 57.1565 69.315 55.4224 68.6005C53.53 67.7204 51.6295 66.2592 49.7697 64.304C47.7322 62.2152 45.7549 59.7212 44.0446 56.9881C42.3657 54.2685 41.3157 51.669 40.9408 49.3101C40.817 47.0329 41.4109 44.9627 42.6058 43.153C44.0193 41.3939 45.9062 39.8521 48.0526 38.6083C50.2344 37.463 52.5101 36.6826 54.6834 36.4072C56.7388 36.4032 58.4578 37.0049 59.8462 38.1173C61.1794 39.522 62.3213 41.385 63.341 43.5433C64.4581 45.9101 65.5933 48.4972 66.7641 51.1082C68.0928 53.8386 69.4714 56.5186 70.7987 58.9352Z" stroke="#EC4A0A" stroke-width="0.77207" stroke-linecap="round"/>
<path opacity="0.85" d="M68.9689 57.512C70.6218 62.6701 68.7597 65.9787 65.0407 65.8754C61.8382 66.2814 58.5857 65.6889 55.8183 63.9246C52.7757 61.8813 50.0462 58.3012 48.3814 53.8813C46.7796 49.5048 47.0912 45.6061 48.9642 42.8433C51.1677 40.3529 54.4631 38.8928 57.8104 38.9997C60.7732 39.6715 62.9963 42.0348 64.5448 45.3336C66.131 49.1292 67.6575 53.5885 68.9689 57.512Z" stroke="#EC4A0A" stroke-width="0.77207" stroke-linecap="round"/>
<path opacity="0.93" d="M67.4326 56.3511C68.2708 61.9079 66.8055 64.1559 63.4092 62.8584C59.0294 62.5303 54.6171 58.104 53.6303 52.0724C52.7372 46.1335 56.431 42.1478 60.8678 42.9925C64.4283 44.7015 66.6825 50.8775 67.4326 56.3511Z" stroke="#EC4A0A" stroke-width="0.77207" stroke-linecap="round"/>
</svg>
